<mxfile host="app.diagrams.net" modified="2024-03-11T16:48:24.379Z" agent="Mozilla/5.0 (Windows NT 10.0; Win64; x64) AppleWebKit/537.36 (KHTML, like Gecko) Chrome/122.0.0.0 Safari/537.36" etag="Tu4JPrp0ugib7pltXACn" version="24.0.0" type="device">
  <diagram name="Pagina-1" id="Yr2s9X-LrEUBLawHxfo-">
    <mxGraphModel dx="957" dy="422" grid="1" gridSize="10" guides="1" tooltips="1" connect="1" arrows="1" fold="1" page="1" pageScale="1" pageWidth="827" pageHeight="1169" math="0" shadow="0">
      <root>
        <mxCell id="0" />
        <mxCell id="1" parent="0" />
        <mxCell id="8tdE_Qj3nmRt0l0BzKSP-4" style="edgeStyle=orthogonalEdgeStyle;rounded=0;orthogonalLoop=1;jettySize=auto;html=1;exitX=0.5;exitY=1;exitDx=0;exitDy=0;" edge="1" parent="1" source="8tdE_Qj3nmRt0l0BzKSP-1" target="8tdE_Qj3nmRt0l0BzKSP-2">
          <mxGeometry relative="1" as="geometry" />
        </mxCell>
        <mxCell id="8tdE_Qj3nmRt0l0BzKSP-1" value="Titolo" style="rounded=0;whiteSpace=wrap;html=1;" vertex="1" parent="1">
          <mxGeometry x="320" y="120" width="120" height="60" as="geometry" />
        </mxCell>
        <mxCell id="8tdE_Qj3nmRt0l0BzKSP-6" style="edgeStyle=orthogonalEdgeStyle;rounded=0;orthogonalLoop=1;jettySize=auto;html=1;exitX=0.5;exitY=1;exitDx=0;exitDy=0;" edge="1" parent="1" source="8tdE_Qj3nmRt0l0BzKSP-2" target="8tdE_Qj3nmRt0l0BzKSP-5">
          <mxGeometry relative="1" as="geometry" />
        </mxCell>
        <mxCell id="8tdE_Qj3nmRt0l0BzKSP-2" value="- Informa sul contenuto e desta curiosità spingendo alla lettura&lt;br&gt;- Seleziona e interpreta i paragrafi e il testo" style="rounded=0;whiteSpace=wrap;html=1;" vertex="1" parent="1">
          <mxGeometry x="305" y="230" width="150" height="90" as="geometry" />
        </mxCell>
        <mxCell id="8tdE_Qj3nmRt0l0BzKSP-5" value="- Caldo: non solo valuta ma fornisce anche dei contenuti emotivi&lt;br&gt;&lt;br&gt;- Freddo: si limita ad essere oggettivo" style="rounded=0;whiteSpace=wrap;html=1;" vertex="1" parent="1">
          <mxGeometry x="305" y="360" width="150" height="90" as="geometry" />
        </mxCell>
        <mxCell id="8tdE_Qj3nmRt0l0BzKSP-7" style="edgeStyle=orthogonalEdgeStyle;rounded=0;orthogonalLoop=1;jettySize=auto;html=1;exitX=0.5;exitY=1;exitDx=0;exitDy=0;" edge="1" parent="1" source="8tdE_Qj3nmRt0l0BzKSP-8" target="8tdE_Qj3nmRt0l0BzKSP-10">
          <mxGeometry relative="1" as="geometry" />
        </mxCell>
        <mxCell id="8tdE_Qj3nmRt0l0BzKSP-8" value="Citazioni" style="rounded=0;whiteSpace=wrap;html=1;" vertex="1" parent="1">
          <mxGeometry x="525" y="120" width="120" height="60" as="geometry" />
        </mxCell>
        <mxCell id="8tdE_Qj3nmRt0l0BzKSP-9" style="edgeStyle=orthogonalEdgeStyle;rounded=0;orthogonalLoop=1;jettySize=auto;html=1;exitX=0.5;exitY=1;exitDx=0;exitDy=0;" edge="1" parent="1" source="8tdE_Qj3nmRt0l0BzKSP-10" target="8tdE_Qj3nmRt0l0BzKSP-11">
          <mxGeometry relative="1" as="geometry" />
        </mxCell>
        <mxCell id="8tdE_Qj3nmRt0l0BzKSP-10" value="- Trascrizioni di parti di testo tratte da riviste, discorsi, quotidiani&lt;br&gt;- Trasporre in modo fedele&amp;nbsp;" style="rounded=0;whiteSpace=wrap;html=1;" vertex="1" parent="1">
          <mxGeometry x="510" y="230" width="150" height="90" as="geometry" />
        </mxCell>
        <mxCell id="8tdE_Qj3nmRt0l0BzKSP-11" value="- Va indicata la fonte della citazione&lt;br&gt;- Si possono usare i due punti per riportare il testo&lt;br&gt;- Verbi dichiarativi (dire, pensare, affermare)" style="rounded=0;whiteSpace=wrap;html=1;" vertex="1" parent="1">
          <mxGeometry x="510" y="360" width="150" height="90" as="geometry" />
        </mxCell>
        <mxCell id="8tdE_Qj3nmRt0l0BzKSP-12" value="Esempio di titolo: &quot;La stesura del testo&quot;" style="rounded=1;whiteSpace=wrap;html=1;" vertex="1" parent="1">
          <mxGeometry x="130" y="120" width="120" height="60" as="geometry" />
        </mxCell>
        <mxCell id="8tdE_Qj3nmRt0l0BzKSP-13" value="Esempio di citazione: &quot;Le mani di Victor&quot; detto da Victor" style="rounded=1;whiteSpace=wrap;html=1;" vertex="1" parent="1">
          <mxGeometry x="680" y="120" width="120" height="60" as="geometry" />
        </mxCell>
        <mxCell id="8tdE_Qj3nmRt0l0BzKSP-14" style="edgeStyle=orthogonalEdgeStyle;rounded=0;orthogonalLoop=1;jettySize=auto;html=1;exitX=0.5;exitY=1;exitDx=0;exitDy=0;" edge="1" parent="1" source="8tdE_Qj3nmRt0l0BzKSP-15" target="8tdE_Qj3nmRt0l0BzKSP-17">
          <mxGeometry relative="1" as="geometry" />
        </mxCell>
        <mxCell id="8tdE_Qj3nmRt0l0BzKSP-15" value="Coerenza" style="rounded=0;whiteSpace=wrap;html=1;" vertex="1" parent="1">
          <mxGeometry x="313.75" y="490" width="120" height="60" as="geometry" />
        </mxCell>
        <mxCell id="8tdE_Qj3nmRt0l0BzKSP-17" value="- Unità e continuità di senso e di stile&lt;br&gt;&lt;br&gt;Tipi:&lt;br&gt;- logica (idee con ordine preciso - filo logico)&lt;div&gt;- linguistica (lessico/sintassi deve essere omogeneo)&lt;/div&gt;" style="rounded=0;whiteSpace=wrap;html=1;" vertex="1" parent="1">
          <mxGeometry x="260" y="720" width="227.5" height="150" as="geometry" />
        </mxCell>
        <mxCell id="8tdE_Qj3nmRt0l0BzKSP-19" style="edgeStyle=orthogonalEdgeStyle;rounded=0;orthogonalLoop=1;jettySize=auto;html=1;exitX=0.5;exitY=1;exitDx=0;exitDy=0;" edge="1" parent="1" source="8tdE_Qj3nmRt0l0BzKSP-20" target="8tdE_Qj3nmRt0l0BzKSP-26">
          <mxGeometry relative="1" as="geometry">
            <mxPoint x="617.5" y="600" as="targetPoint" />
          </mxGeometry>
        </mxCell>
        <mxCell id="8tdE_Qj3nmRt0l0BzKSP-20" value="Coesione" style="rounded=0;whiteSpace=wrap;html=1;" vertex="1" parent="1">
          <mxGeometry x="547.19" y="490" width="120" height="60" as="geometry" />
        </mxCell>
        <mxCell id="8tdE_Qj3nmRt0l0BzKSP-21" style="edgeStyle=orthogonalEdgeStyle;rounded=0;orthogonalLoop=1;jettySize=auto;html=1;exitX=0.5;exitY=1;exitDx=0;exitDy=0;" edge="1" parent="1" target="8tdE_Qj3nmRt0l0BzKSP-23">
          <mxGeometry relative="1" as="geometry">
            <mxPoint x="585" y="690" as="sourcePoint" />
          </mxGeometry>
        </mxCell>
        <mxCell id="8tdE_Qj3nmRt0l0BzKSP-26" value="- Insieme di legami che tengono uniti i termini di un testo&lt;br&gt;&lt;br&gt;Tipi:&lt;br&gt;- morfologico (forma delle parole)&lt;br&gt;- lessicale (tipo di termini che usi)&lt;br&gt;- di punteggiatura (legame logico tra frasi)&lt;br&gt;- sintattico (soggetto e complemento)&lt;br&gt;&lt;br&gt;Connettivi:&lt;br&gt;- legano le informazioni con relazioni logiche&lt;br&gt;- segnalano l&#39;ordine tra le proposizioni&lt;br&gt;&lt;span style=&quot;color: rgba(0, 0, 0, 0); font-family: monospace; font-size: 0px; text-align: start; text-wrap: nowrap;&quot;&gt;&lt;br&gt;Tipi%3CmxGraphModel%3E%3Croot%3E%3CmxCell%20id%3D%220%22%2F%3E%3CmxCell%20id%3D%221%22%20parent%3D%220%22%2F%3E%3CmxCell%20id%3D%222%22%20style%3D%22edgeStyle%3DorthogonalEdgeStyle%3Brounded%3D0%3BorthogonalLoop%3D1%3BjettySize%3Dauto%3Bhtml%3D1%3BexitX%3D0.5%3BexitY%3D1%3BexitDx%3D0%3BexitDy%3D0%3B%22%20edge%3D%221%22%20source%3D%223%22%20target%3D%225%22%20parent%3D%221%22%3E%3CmxGeometry%20relative%3D%221%22%20as%3D%22geometry%22%2F%3E%3C%2FmxCell%3E%3CmxCell%20id%3D%223%22%20value%3D%22Titolo%22%20style%3D%22rounded%3D0%3BwhiteSpace%3Dwrap%3Bhtml%3D1%3B%22%20vertex%3D%221%22%20parent%3D%221%22%3E%3CmxGeometry%20x%3D%22320%22%20y%3D%22120%22%20width%3D%22120%22%20height%3D%2260%22%20as%3D%22geometry%22%2F%3E%3C%2FmxCell%3E%3CmxCell%20id%3D%224%22%20style%3D%22edgeStyle%3DorthogonalEdgeStyle%3Brounded%3D0%3BorthogonalLoop%3D1%3BjettySize%3Dauto%3Bhtml%3D1%3BexitX%3D0.5%3BexitY%3D1%3BexitDx%3D0%3BexitDy%3D0%3B%22%20edge%3D%221%22%20source%3D%225%22%20target%3D%226%22%20parent%3D%221%22%3E%3CmxGeometry%20relative%3D%221%22%20as%3D%22geometry%22%2F%3E%3C%2FmxCell%3E%3CmxCell%20id%3D%225%22%20value%3D%22-%20Informa%20sul%20contenuto%20e%20desta%20curiosit%C3%A0%20spingendo%20alla%20lettura%26lt%3Bbr%26gt%3B-%20Seleziona%20e%20interpreta%20i%20paragrafi%20e%20il%20testo%22%20style%3D%22rounded%3D0%3BwhiteSpace%3Dwrap%3Bhtml%3D1%3B%22%20vertex%3D%221%22%20parent%3D%221%22%3E%3CmxGeometry%20x%3D%22305%22%20y%3D%22230%22%20width%3D%22150%22%20height%3D%2290%22%20as%3D%22geometry%22%2F%3E%3C%2FmxCell%3E%3CmxCell%20id%3D%226%22%20value%3D%22-%20Caldo%3A%20non%20solo%20valuta%20ma%20fornisce%20anche%20dei%20contenuti%20emotivi%26lt%3Bbr%26gt%3B%26lt%3Bbr%26gt%3B-%20Freddo%3A%20si%20limita%20ad%20essere%20oggettivo%22%20style%3D%22rounded%3D0%3BwhiteSpace%3Dwrap%3Bhtml%3D1%3B%22%20vertex%3D%221%22%20parent%3D%221%22%3E%3CmxGeometry%20x%3D%22305%22%20y%3D%22360%22%20width%3D%22150%22%20height%3D%2290%22%20as%3D%22geometry%22%2F%3E%3C%2FmxCell%3E%3CmxCell%20id%3D%227%22%20style%3D%22edgeStyle%3DorthogonalEdgeStyle%3Brounded%3D0%3BorthogonalLoop%3D1%3BjettySize%3Dauto%3Bhtml%3D1%3BexitX%3D0.5%3BexitY%3D1%3BexitDx%3D0%3BexitDy%3D0%3B%22%20edge%3D%221%22%20source%3D%228%22%20target%3D%2210%22%20parent%3D%221%22%3E%3CmxGeometry%20relative%3D%221%22%20as%3D%22geometry%22%2F%3E%3C%2FmxCell%3E%3CmxCell%20id%3D%228%22%20value%3D%22Citazioni%22%20style%3D%22rounded%3D0%3BwhiteSpace%3Dwrap%3Bhtml%3D1%3B%22%20vertex%3D%221%22%20parent%3D%221%22%3E%3CmxGeometry%20x%3D%22525%22%20y%3D%22120%22%20width%3D%22120%22%20height%3D%2260%22%20as%3D%22geometry%22%2F%3E%3C%2FmxCell%3E%3CmxCell%20id%3D%229%22%20style%3D%22edgeStyle%3DorthogonalEdgeStyle%3Brounded%3D0%3BorthogonalLoop%3D1%3BjettySize%3Dauto%3Bhtml%3D1%3BexitX%3D0.5%3BexitY%3D1%3BexitDx%3D0%3BexitDy%3D0%3B%22%20edge%3D%221%22%20source%3D%2210%22%20target%3D%2211%22%20parent%3D%221%22%3E%3CmxGeometry%20relative%3D%221%22%20as%3D%22geometry%22%2F%3E%3C%2FmxCell%3E%3CmxCell%20id%3D%2210%22%20value%3D%22-%20Trascrizioni%20di%20parti%20di%20testo%20tratte%20da%20riviste%2C%20discorsi%2C%20quotidiani%26lt%3Bbr%26gt%3B-%20Trasporre%20in%20modo%20fedele%26amp%3Bnbsp%3B%22%20style%3D%22rounded%3D0%3BwhiteSpace%3Dwrap%3Bhtml%3D1%3B%22%20vertex%3D%221%22%20parent%3D%221%22%3E%3CmxGeometry%20x%3D%22510%22%20y%3D%22230%22%20width%3D%22150%22%20height%3D%2290%22%20as%3D%22geometry%22%2F%3E%3C%2FmxCell%3E%3CmxCell%20id%3D%2211%22%20value%3D%22-%20Va%20indicata%20la%20fonte%20della%20citazione%26lt%3Bbr%26gt%3B-%20Si%20possono%20usare%20i%20due%20punti%20per%20riportare%20il%20testo%26lt%3Bbr%26gt%3B-%20Verbi%20dichiarativi%20(dire%2C%20pensare%2C%20affermare)%22%20style%3D%22rounded%3D0%3BwhiteSpace%3Dwrap%3Bhtml%3D1%3B%22%20vertex%3D%221%22%20parent%3D%221%22%3E%3CmxGeometry%20x%3D%22510%22%20y%3D%22360%22%20width%3D%22150%22%20height%3D%2290%22%20as%3D%22geometry%22%2F%3E%3C%2FmxCell%3E%3CmxCell%20id%3D%2212%22%20value%3D%22Esempio%20di%20titolo%3A%20%26quot%3BLa%20stesura%20del%20testo%26quot%3B%22%20style%3D%22rounded%3D1%3BwhiteSpace%3Dwrap%3Bhtml%3D1%3B%22%20vertex%3D%221%22%20parent%3D%221%22%3E%3CmxGeometry%20x%3D%22130%22%20y%3D%22120%22%20width%3D%22120%22%20height%3D%2260%22%20as%3D%22geometry%22%2F%3E%3C%2FmxCell%3E%3CmxCell%20id%3D%2213%22%20value%3D%22Esempio%20di%20citazione%3A%20%26quot%3BLe%20mani%20di%20Victor%26quot%3B%20detto%20da%20Victor%22%20style%3D%22rounded%3D1%3BwhiteSpace%3Dwrap%3Bhtml%3D1%3B%22%20vertex%3D%221%22%20parent%3D%221%22%3E%3CmxGeometry%20x%3D%22680%22%20y%3D%22120%22%20width%3D%22120%22%20height%3D%2260%22%20as%3D%22geometry%22%2F%3E%3C%2FmxCell%3E%3C%2Froot%3E%3C%2FmxGraphModel%3Etin&lt;/span&gt;" style="rounded=0;whiteSpace=wrap;html=1;" vertex="1" parent="1">
          <mxGeometry x="501.88" y="640" width="210.62" height="290" as="geometry" />
        </mxCell>
        <mxCell id="8tdE_Qj3nmRt0l0BzKSP-27" value="Iperonimo: termine generale&lt;br&gt;Iponimo: termine specifico&lt;br&gt;&lt;br&gt;Parole: verde, rosso, bianco, giallo&lt;br&gt;&lt;br&gt;Iperonimo: colore&lt;div&gt;Iponimo: verde&lt;/div&gt;" style="rounded=1;whiteSpace=wrap;html=1;" vertex="1" parent="1">
          <mxGeometry x="257.19" y="960" width="252.81" height="130" as="geometry" />
        </mxCell>
        <mxCell id="8tdE_Qj3nmRt0l0BzKSP-28" value="" style="shape=image;verticalLabelPosition=bottom;labelBackgroundColor=default;verticalAlign=top;aspect=fixed;imageAspect=0;image=data:image/jpeg,/9j/4AAQSkZJRgABAQEAAAAAAAD/4QAuRXhpZgAATU0AKgAAAAgAAkAAAAMAAAABABoAAEABAAEAAAABAAAAAAAAAAD/2wBDAAoHBwkHBgoJCAkLCwoMDxkQDw4ODx4WFxIZJCAmJSMgIyIoLTkwKCo2KyIjMkQyNjs9QEBAJjBGS0U+Sjk/QD3/2wBDAQsLCw8NDx0QEB09KSMpPT09PT09PT09PT09PT09PT09PT09PT09PT09PT09PT09PT09PT09PT09PT09PT09PT3/wAARCAFjAdoDASIAAhEBAxEB/8QAHwAAAQUBAQEBAQEAAAAAAAAAAAECAwQFBgcICQoL/8QAtRAAAgEDAwIEAwUFBAQAAAF9AQIDAAQRBRIhMUEGE1FhByJxFDKBkaEII0KxwRVS0fAkM2JyggkKFhcYGRolJicoKSo0NTY3ODk6Q0RFRkdISUpTVFVWV1hZWmNkZWZnaGlqc3R1dnd4eXqDhIWGh4iJipKTlJWWl5iZmqKjpKWmp6ipqrKztLW2t7i5usLDxMXGx8jJytLT1NXW19jZ2uHi4+Tl5ufo6erx8vP09fb3+Pn6/8QAHwEAAwEBAQEBAQEBAQAAAAAAAAECAwQFBgcICQoL/8QAtREAAgECBAQDBAcFBAQAAQJ3AAECAxEEBSExBhJBUQdhcRMiMoEIFEKRobHBCSMzUvAVYnLRChYkNOEl8RcYGRomJygpKjU2Nzg5OkNERUZHSElKU1RVVldYWVpjZGVmZ2hpanN0dXZ3eHl6goOEhYaHiImKkpOUlZaXmJmaoqOkpaanqKmqsrO0tba3uLm6wsPExcbHyMnK0tPU1dbX2Nna4uPk5ebn6Onq8vP09fb3+Pn6/9oADAMBAAIRAxEAPwD2WiiigAooooAKKKKACiiigAooooAKKKKACiiigAooooAKKKKACiiigAooooAKKKKACiiigAooooAKKKKACiiigAooooAKKKKACiiigAooooAKKKKACiiigAooooAKKKKACiiigAooooAKKKKACiiigAooooAKKKKACiiigAooooAKKKKACiiigAooooAKKKKACiiigAooooAKKKKACiiigAooooAKKKKACiiigAooooAKKKKACiiigAooooAKKKKACiiigAooooAKKKKACiiigAooooAKKKKACiiigAooooAKKKKACiiigAooooAKKKKACiiigAooooAKKKKACiiigDzXWr/VtO+LGj6RFq12dOvk8x4SRwcNwDjOPlBqXxb4h1XwN4j0l1vJL3S7+QxywTgF4yCASrAZ6NnBz0qp4uDH43eFwjBW8g4JGcff7VE+68+LlvY+MkWZo08zSjH8kHrypySxx3PUYxjFAG/8UrvUNI8KS6ppWo3FpcW7oCEwVYE4III685z7VqaLby6l4X024n1K9Se5to3eRZQCXZQTjjHXPFZXxh/5Jvf/AO/F/wChijQ9N1ObTvCN1Hfs9lDBGZbYRgdYSA24dcEgYPrmgDVttN1OPw1c2l7qdy15E0vlXi7Q7LklCRjHQgYx2rnPhHqWqeINGudS1fU7i6kWcwpG2AqgKD0A5PP6V390R9lnXI3eWcj8K88+Bf8AyJl1/wBfr/8AoK0Aek1i+LtQutM8NXk2nIXvjGy26gc78E5/AAn8K2GZVxkgZOBk9axbia4n18/Z7QXEVnHtOZAuJH5PXrhcf99GgCHwJ4h/4SfwjZX7MGnK+XPj/novB/Pg/jS3ml6rqHiYyLqlzZ6ZDAgEMAUebISxJLEHAAwOK4zwK8nhL4iat4auY/Itr7N1aIWDAd8A/wC7kf8AAa9E1zWLXQNHudSvn2w26bj6sewHuTgUAcb8QdeuNBgtdL0S6u5dc1BwkC79xQZxuI9+nPue1dIumahD4SFtdarcNqKQsz3aEA+ZjPTGMA8Yx0Fcl8ONHutd1W58b64n+k3ZK2UZ6RR9Mj8OB7ZPevQb11NndIGBZYmJUHpkHH8jQBw3wk1HVde0O41PV9TuLqQXDQpG2AqgKDnAHJy36VoweJLjxR4su9J0eXyNO03i8u0GXkk6eWnYDg5bk8cY61j/AARDHwFdCM4c3koU+h2pVb4HAxWevQz8XSXg80Hr0I/mDQB3eoaRdfY5G0q/uILxRmNpJDIjN2DK2eO3GD71n+DvFUfjDSJxIhtb+1fybuFW5jf1B9Dg/kRXUV5X8N4zJ8TPGFzbD/Q/OZMjoW8wn+h/OgBkvinW/BXi4trd5Le+Hbqd4ElcDdAQeM4A5H6jnrXoWuLJeaBcS2N7JbuIWkhnhI67cg88EdKpS6JZ+ItE1PTr+PfBNcyjPdTu4YehB5rh/DWs3nhCe+8FeIXyohkOnXJ4WRSDhc+h7ehyPSgDtruzu4/BUjR6peC9jtTMLncNxcJnkYxjI6Vj/Ci/1HW/DR1XVtRuLueSZkVXwFVRx0AHPXk1019/yJ9x/wBeLf8AouuW+Cn/ACTyH/r4l/nQB0/iW31K702O30m6e0nlnRWnQBjGmcsefYEfjXN/EKS/8MeB573T9VvftUbxqJZHDHlgDxjFd5XC/GX/AJJxef8AXWL/ANCFAGnZ6beax4VsZ49Zv7a8ntI5PNVlI3lAclSMYyenFcn8QNS1/wAP+D9I1CLVbm3vmZLe6UBSrttOWwRwcr29a7/wv/yKmkf9eUP/AKAK4j46f8ihZf8AX8n/AKC1AGh44utW8OeGV13S9Tm325jMsFwFeOVWwPTIOSOhrqPDurDXfD1jqYj8v7VCshTP3Seo/PNee/Eea8hfRoNeYS+F53RZzbAxuHxxvPOQOuBjOD3xXptrDb2ljDFaqkdtFGFjVeFVAOMe2KAOO+Ifi288MTaXLaIxtUuUa+cDpGcgL9Thj/wEV20UqTxLJEwZHUMrDoQa43VdMuvE/hrU4G04ONSBeKUzAbQP9UcHpjAP4mo/hLrj6n4TFhdEi80uQ20qt1wPu/pkfhQB3Nea6zf6tp/xa0jSI9Wuzpt9H5jwkj5Th+A2M4yoNelV5d4tDn43+GhG4RzbnDEbgPv9qAL3jXxBqXgXWNLvIb2S7028l8me1nAJU8fMjAZHB6HPSu/luI4Ld55G2xopdiewHNcxqPgeLXtatb/XL+a7S0O6C1VBHEDnOT1LdB37Vp688siW9jbxec88m50Dbcxry3PbJwPxoAwPAXiy91rVtc0zV1MV7aXBkjiIwVhboPfHHPuK6jWbeW40q4WC6mtZVRmSWIjKkA+vX6V5t4smuPCvxF0nxRLbfZrW7/0S8xIHB7ZP4YP/AACvUbwhtPuCCCDE2D+FAHn/AMNLvVfFnhC4udQ1e8F4ty8aTIVG0BVI+XGDyT1q58OPF2oa9catpesGOW80yXYZ412iQZZeQO+V7etcr8PW1yH4V6nP4feD7VHcysEkjLMcKudpz1x0yDzXV/CaPSJPCgvNLjkW4uJD9saV98hlHXJ9Ocj60AWJvE1xrfjKTw7osgijs136heAAlfSNM8ZJOCxzjnAyK3bvSJXtGFjqF3b3QGUlaQyDd23K3BHtxXn/AMIlMHijxbBdAi9FyC2epG58/qR+deq0Acp4N8WHxFHe2F/GLbV7BzDdRIfl6kb19jj8K5uwvNZl+L13oEmt3jadbxfaFTK5PyqQpbGcAt+lQ+FI3l+OniSa3z9njjKykdNx2D88g/kam03/AJOF1T/rxH/oMdAHp44wK828balquj+O/D1tZ6rdJZalKEmhyuBhgDg4yMhv0r0gsFBJOAOSTXl/xMzJ498GeW4Um4O1gM4+dOfegDtNZ0e7ubCZNM1i9tb0IWiYSBgW7ZBHQnjtWzblzbRGUYkKAsPfHNYul6dqNp4j1G4vrw3UE0MQgJjCeXgtlePqDn3rdBDZwQcHBoAWiiigAooooAKKKKACiiigAooooAKKKKACiiigAooooA881zwr4j1P4gaf4hgSwSGwARIXmbc685yQvB+Y1oePfCF34ps9PutNkitdWsJhJE7scAdxkD1AP4V2dFAHE+MtE8QeKvCS6UsVjFcSlGuHMzbRtOfl+XuQOvStDwxba9o/h+10+/tbSeS1jESSRXBAZRwuQV4OMetdNRQBysFp4l83Wbu6jsWnu0SK0hSZtkSqG+8SvJJbPA/Ksf4eeF/EXgq0uLK5WxuraaTzQY52VkbGD1XkcCvQqKAOXvoPEl3rtlcrb2Udhab38n7QxeVypUZO3AAznvVvwra6tZ2E0etrbG6ed5TLbuSG3NnoRxgYH0ArdooA8/8AG3hPXtd8T6Zq2j/YraTTfuSSyNuk5yAQF4HX8zSeLvC2veMr3TYrwW0Gk27CS4to52LSv3529McD6k16DRQBks+pW1osVjplqNihUVrnaqgcAcKeKx9N07xJb2Gsz3xsp9Tv5P3SpIyxRIE2qORnjk+/rXXUUAcR8NvDGseD9On03URaSwPKZkkhkJKkgAggjp8oq5N4Vm07xPJr+gPGktyNt7aS8R3H+0CPusOucEH2rq6KAMW/fWby0aCwgjsZpBtNxM4fys9Sqj7x9M4H8qPD3hy18K6L9j01Glfl5JJGw80h6sx9/wBK2qKAMTw7Bq9t9rXVobVRJcPNGYJS2FY5CkEDketUvHXg238Y6P5JIivYTutp8fdPofY//XrqKKAMjWba/m8OS2enRwvcywGEGVyqrlcZ4Bz9KxPh14d1bwporaVqS2skSyNJHLDIT17EEDv3rsqKACuR+Ieg6r4o0FtK0xbZFldXeWaQjG05wAAe+Oa66igDH8MW1/Y6BaWWqRwrPaxLDuhcsrhRgHkDHAHFc78SfC2s+MLK3sNPFnFDFL5rSzSNljjAAAXjqa7qigDmtX0CfxN4Km0rVI4Ibp4gqsjl1WRRww4BxkflWTa6R4vtvAo0PNg96qeQt0Zmx5XuNuc44/Wu7ooArWxnFinmQJHMEwYkfKgjsDjpXB6J4U8R6N471HW4Y7AWeoMfNtVmYEdwQduM5yfxNei0UAIM7RkYPpXnuteFfEWpfEGw8QwJYJDYgIkLTNudec5IXg/Ma9DooAYhYxAuoVyORnOPxrAsINc/4Sq6vL6C0FjJEsMCxzEvEASSTlQDuJHTpgda6KigDk/iH4evvFPht9LsY7bdI6P5s0hXy9pzwADkkZH407SbXxJZeERp13DZz38cPkxzCdgjDGAW+XOQMdOuO1dVRQBxHw28Max4P06fTtRFpLDJKZkkhkOQSACCCPYUzw94R1Xwv4z1O509rZ9D1B97QM5V4m65Axjgkj3BFd1RQBy2o+FJI/EyeItCljg1Ar5d1DJnyrtPQkfdbgYbnoMitK6uNZmtGSzsore4YYEk0oZIz64HLY9OM+1a9FAGF4Z8M2/hfT5o7dnubqdjLcXEnDTue59Pp2rk4/CfiiH4jzeKI107bKPLa3MzZMe0D723r8oNek0UAc34ij8R6jpE1npVvZ2s06mNppZy2wHgkALycetc34x8HeItf1vSbzTjYQJpWDD5sjEuwIOSAvA+UcV6RRQBkS3Wu/Yj5WnWf2srxuuj5efwXOKXwzY32naHDDqssct8WeSZ4/ulmYtx+da1FABRRRQAUUUUAFFFFABRRRQAUUUUAFFFFABRRRQAUUUUAFFFFABRRRQAUUUUAFFFFABRRRQAUUUUAFFFFABRRRQAUUUUAFFFFABRRRQAUUUUAFFFFABRRRQAUUUUAFFFFABRRRQAUUUUAFFFFABRRRQAUUUUAFFFFABRRRQAUUUUAFFFFABRRRQAUUUUAFFFFABRRRQAUUUUAFFFFABRRRQAUUUUAFFFFACGignAPtXJJ4kvD4GudWIj+0xO4UbTt4fA4+lTKaibUqE6use6Xzex1vrxRzXJS6vrejGzn1JrS5tLiRY2MKFGjLdDyeRUtxqGs3niW80/T57WGK2jjbMsRcncPqKn2n3mn1OfdW3v6aHUe9Ga53WL/VNE8LT3U8lvNeIwAZUITBYDpn3qrJrGs6Pe2I1NrS5truUQ5hQoyMenBJyKbmk7MUcJOS5otdfnY6w57Ulc9qOsahc6ydJ0dYlliQSXE8wLLGD0AA6k1Emq6pouq21prBguLa7bZFcxKUKv/dZSTwfUUc6uCws2t1e17dbHT5xSd65LUPFV1p3is2sqR/2agjEkmPmQvnBJ9MjFat7qk9v4l02xTZ5FzHKzkjn5QMY/OhTTv6g8JUja/VX+VrmyOtGetYFhrFxcXeuI4TbZPtiwP9nPPrzVTwd4kutaEsOorGtwEWaPYMBkP+BGKFUTaB4Sooyl0VvxOq9qK5Pxb4nu9Inig09YmdVEs5cEhVLBQOO5JP5VpXmrXFv4k0uxTZ5N1HIz5HPygEYo9ortAsJU5Yy6O7+7Vm1RSZxyTWbb+IdKurv7LDfwSTZwEDDJPt61baRhGEpaxVzUopCflJ9q5FPEd4fAl1qpEX2mJ3VRtO3h8Dj6VMpqJpSoSq/D3S+/Y67FJXJyavrWitaT6k1rc2dxIsbGFCjRluh5JyKt6hq9/da02k6MsSyRIJLi4mG5YwegAHUml7RfMv6pO+6t36aHRc44oHWuXj1XVNI1a1tNaaCe3u22RXESlCr+jDJ6+oqGfxZc2njCWynSP+zlZIvMA5V3XK5PoSCKTqJblLBVJN8tnpf1Wx11FY1xqk8fiq009QnkTW7ynjnIIAqGx1i5uLjXEkCYsnxFgdtuefXmq50ZrDzav5X/ABsb9Fct4O8SXesiSHUVjS4CLMhQYDo2efwIxTfFvia70i5jg09Y2ZFEs5cEhVLBQOO5JP5UvaR5eboafUqrrew6/gdXSjpWHeatcQeJdLsUCeTcxyNJkc5AGMVtiqUk9Ec86bgk311/QWiiimQFFFFABRRRQAUUUUAFFFFABRRRQAUUUUAFFFFABRRRQAUUUUAFFFFABRRRQAUUUUAFFFFABRRRQAUUUUAMc/I30rz6P/kld/8A9dJP/Rleh4yTWeNEsBpb6eLdfsshJaPnBycn9aznDmOvDYiNJWa+1F/dcyLbw5d3xs5dW1L7TBAVkjgSIIu4Dgn1xVF9OTUfHWqq93cWxSGHBgk2Z4PX1rs1QRoqqMBRgCsu+8NaVqV2bm7tFkmYAF9xHT6GlKntY0p4z3pc7smrKyWmqe2hleMbYWvgaaFZpJQhQeZI25m+cdT3NUbiwbRPEGlXWoXM19ayt5SNcNkwSEcEAcc9OeldOugaammtp4tV+yM24xknBOc+vqBU97p1rqFv5F3CJYsg7TxyOnSh023f0HTxkYRUOl3fvqkjn9LlSx8dazBcEI12sUsJY/fAXBA+hpvix1vtS0bTYGD3H2tZmC/wouck+lb2paJYauqLfW6S7Puk8EfQjkU3TdA07SWZrG1SNn+8+SWP4nmjkduXoL6xT5lV15krW6aK1/6RhHT4dT8Va7ZXAzHLaQqf/HufzxWZpF3PJ4s0mwvSTeWCTwyMf41wNrfiK7lLG3ivpbtIwLiVQrv/AHgOlRnSrNtTW/Nun2tV2iXvj0pOm738yo42KTi1py2Xk7WOd0k/6d4qH/TT/wBkrItD/ZWieHdbUYjhXyLgj/nmx6/gefxruotNtYXunjhCtdHMx/v8Y/lTf7IsjpX9m+Qv2Pbs8rPGPSj2b7gsbC+qdna/olZnDahG154S1TWphh7+eMxg9olcBB/M/jW9qRz430D/AK4zfyFbk2lWdxpwsZYFNqoUCPsAOn8hT5LC2lvYLt4gZ4AVjfuoPWhU337A8ZF9P5vuaSX3Gd4veVPCuotASHERwV647/pmsAaPqGp6FZRRy6ZFbJ5ckUkatuXGDwf0/Gu3ZQ6lWGVIwQax4/COjQzLIlkoKtuC7m2g+oXOKcoXdyMPiY06fLs073tc1zxGR/s159H/AMkpvv8ArpJ/6Mr0THbtWeNEsBpj6cLdfsjklo8nByc/zpzhzfcRhsRGktV9qL+65kW3hy7vjaSavqRuoYNskcCRCNdwHBPriotJlWw8caxb3BCvdLHLCWP3lAwcfjXVIixqFUYUDAFUtS0Ww1dFF/bJLsOVY9V+hHIpeztZopYvmclU+Fq2iWmt9jC8WSJe6ro2nQkNP9qWZgOdqL1J9KiTTIdW1/xPZTfckSAA/wB07Dg/UHBrf03QdO0hnextUjd/vPklj+J5qzFY29vdz3UcSrPcbfNcdW2jA/IUcjbu+5SxUaceSnfbR+d0/wBDitBvpbvxbY299n7bZ20sE2e5BGG+hHNaGl/8ffir083/ANkrohpNn/aZ1EW6i7KbPN7kelOi0y1ha6aOFVa6OZj/AHzjH8qSpvuVUxlOV+VWukvne7OGtP8AiU6J4e1xciOJPIucf882PB/Bufxpt8r3nhTUtZmGHv7iMp7RK4CD+Z/Gu4OkWR0r+zTAps9u3yieMelLPpdnc6eLGWBDbAKBH2+Xp/IUvZO1rlrHw5lKzvf8L3t95h6l/wAjxoP/AFxm/kK6iqsun28t7BdvEDNACsb91B61arWKs2cVaqpqCXRW/Fv9RaKKKowCiiigAooooAKKKKACiiigAooooAKKKKACiiigAooooAKKKKACiiigAooooAKKKKACiiigAooooAKKKKACiiigAooooAKKKKACiiigAooooAKKKKACiiigAooooAKKKKACiiigAooooAKKKKACiiigAooooAKKKKACiiigAooooAKKKKACiiigAooooAKKKKACiiigAooooAKKKKACiiigAoornbvxnY2njC28PvHKZp1H74D5EcglUPuQpNAHRUVl3+uRWGuaZpkkUjSagZdjjGF2LuOfr7VF4k8Qr4egtG+xzXct3cLbxRRFQSxBI6nHagDZorA0TxSmq6pPpl1YXWnahDGJjBcbTujJxuVlJBGeKz7Xxvd6iZm07w1qFzBHO8BmWSJQSrbTwWzjigDr6K5rU/F0tlrr6TZ6NeahcRW63Enksi7VYkfxEZOR2qe08YaXdeHJ9bd3t7a2LLcLMuHidTgoR65xwM5yKAN6iuNk8ez21st/feHNTttKbBN2+wlFP8TRg7gORXXRTJPCksLq8bqGVlPBB5BoAkooooAKKKy9Y1iPSoUVVM11KdsMK9XP+HvQ2kTKaguaTNPmlqlpgvPsiHUGjM7csIxhV9uvOPWrtG4Rd1cKKKKCgooooAKKKKACiiigAooPFVrS5kuIWaaBoGDFdrEHIHfj1oFdFmigEflRuGcZoHcKKM+4pCwHU9aAuLRRn3FJu645oAWiq1lcSXFuJJoGt3JOY2IJHPtVjcPUUCUkxaKM+4pNwPQ0DFooooAKKKKACiiigAooooAKKKKACiiigAooooAKKKKACiiigAooooAKKKKACiiigBksqQQvLIwWNFLMT2A5rx2W7u9T8M6lqkejao99dXw1O2uliBjRYyPL5znARSOnc167fWUOo2M9pcqWhnQxuoJGVPBGRS29pDa2cdpDGqQRII0QDgKBgD8qAOMu9Ri1jxX4G1C3OYrmK5lXHbMQJH+fSp/iKk0v/COx2swgnbV4hHKU3hDtbnb3+laM/gPQbiws7J7NhBZM7W4SZ1Me85bBBzg+lK/gfRJNLXTntpWtln+0KGuJCyvjGQ27I496AMPT4r7RvibFFq13HqlxqdmyxXCx+U1ukZyU2AkbSTnPXIqDwHp+rzWd1Pa60Le0XU7gtbfZEfdiQ5+YnIz+ldZo/hXSdCne4sLXbcSLtaaSRpHK+m5iTj2qi3w98PmaSUW1wjSSGRhHdyqCxOScBsdaAMLUrfV7j4naiNDvbe0uF0qIkzQ+YG+dsDrxz35+lYtx5H/Cq0mCy74tWSXV1kO5vMEo83djtnB+mK9Qj0i0i1Z9TSLF3JCsDSbjygJIGPqaih0HToTqBW1UrqLb7pGyyyHGDweOR6daAIPFF7aQ+ENTubiRDbG0k5JyGBUgAeucgfjTPBdvPa+CtHhuQwmS0jDBuo+Xp+FVbf4eeHbaeORbJ3WFt8UMs7vEh7YQnHFdNQAUUUUAJXE63ptxY66dSmu7hLWb5DNHjdBnoD/s+4rthxxTJYknjaORQ6MMFSOCKUldGFeiqsbdjCj0C4lRXTXr5lYZBDLz+lXtt9p9nFFbo1+4yGeWUI38uas2OnwadbiG1UrGOilicfTNWaErBCkkuz9TOlutSTyvL06N9ygvm4A2nuOnP1p63V+bzyzYoLfJxL5wzj/dxV+igvkf8zMtLzVCshfTY1YD5ALgHcc9OnHFL9r1P7Nv/s6Pzt+PL+0DG31zj17Vp0UWYcj/AJmZkl5qgWMppsbMw+dTcAbTnp0545qT7Vf/AGzy/sKeRn/W+cM4/wB3FX6KLMOR/wAzMxLvUz5m/TkXapKf6QDuPYdOPrR9s1T7OW/s2Pzd+Nn2gY2465x68YrToosw5H/MyG3eWS2VriIRSkfMgbcB+PeuOdmbw+gMrIG1QguGwVHmHPNdt1HWsPVNDWawitrSFTGbpZZFY8Ebst1+vSlJaaGVenKUbrsVjaQ6T4jsV0/KC4jk85AxIbaAQxz3zxmsu1tLzU9LN1FaK15IxZbo3GGVgfTHAGMYrqbLRrOwnaW3iIkYbdzuWIX0Geg9qjfw9p7yvJ5TrvO50WVlVj6kA4pOLMnhpPyXYzZrBNS8UNDebmjWzRmjDEKx3Hk4/GksrG21e+1I36mQ283kxoWIEaBRjHueTmugFnCt4boJiZkEef8AZBziql1oVhdztNLEwkYbXKSMm8ehweafKW6D331OdLy3Ph+wR55SBfiJZg3zMgYgHPrjjNaVtaRaX4njhtAUhmtWZ0ySCwYYPPfk1rtptq8EEPkqI4GV41XgKR0qQ2cLXaXTJ++RCitnscE/yoUbAsPJat66HIqpl8P6ShkkXfflSUYg43P3q2ujWo8SvZBXFo1sJWhDnaW3YyfwrdXSLNIIIVi/dwSebGMnhuTn9TU32OEXv2vZ+/KeXuz/AA5zj86Sj3EsM7Lm8jkxJJBo0loksiQjUfsxbccpGW6Z/TPvV+Wzg0nW9M/s5TH57MksasSHUKTkj2Petf8AsmzME8DQq0Vw5eRTzuY9TTbPRrOwm86FGMu3aHkcuQPQZ6CjlYKhK6/qxoUUUVZ2BRRRQAUUUUAFFFFABRRRQAUUUUAFFFFABRRRQAUUUUAFFFFABRRRQAUUUUAFFFFABRRRQAUUUUAFFFFABRRRQAUUUUAFFFFABRRRQAUUUUAFFFFABRRRQAUUUUAFFFFABRRRQAUUUUAFFFFABRRRQAUUUUAFFFFABRRRQAUUUUAFFFFABRRRQAUUUUAFFFFABRRRQAUUUUAFFFFABRRRQAUUUUAFFFFABRRRQAUUUUAFFFFABRRRQAUUUUAFFFFABRRRQAUUUUAFFFFABRRRQAUUUUAFFFFABRRRQAUUUUAFFFFABRRRQAUUUUAFFFFABRRRQAUUUUAFFFFABRRRQAUUUUAFFFFABRRRQAUUUUAFFFFABRRRQAUUUUAFFU9Q1S00uESXkwjDHCr1Zz6ADkn6VmC81vVf+PO3TTbc9JbobpT9EHA/E/hTsK9jfqpNqtjbEie9toyOoeVRWaPC8E+G1K8vL9u4klKp/wB8rgVbg8PaVbDEOnWq+/lKT+tGiFdh/wAJFpGcf2nZ5/67L/jVmDULS5/497qCXP8AckDfyo/s6zIwbS3x6eWKqT+GtHuf9bptrn1WMKfzFHuhqalFYf8Awjj2vOlald2hHSNm82P/AL5b+hFMOr6lpX/IYsxLAP8Al6swWA92T7w+oyKLX2C5v0VBa3lvfQLPazJNE3R0bINT0tigooooAKKKKACiiigAooooAKKKKACiiigAooooAKKKKACiiigAooooAKKKKACiiigAooooAKKKKACiiigAooooAKKKKACiiigAooooAKKKKACiiigAooooAKKKKACiiigArF1LWZRdnTtJjW41AjLFj+7gH95z/Qcmna1qM0MkWnaaA2oXWdpPSFO8jew7Duas6VpUGk2vkw7mZjuklflpXPVmPqaa0RLbvoQaboMVlMbu6ka8v2HzXEo5Hso/hHsK1qKKV7jSsFFFFAwooooAKKKKAMO80FoZ2vtFkW0uzy8ZH7mf/fUd/wDaHP1qzpOspqPmQSxNbXsH+ut3PK+hB7qfUVp1k6zpDX2y6tHEOoW/ME2PzVvVT6fjVJ30ZLVtjWorO0fVBqlsWdDDcxN5c8JPMbjqPp3B7g1o1NrMadwooooGFFFFABRRRQAUUUUAFFFFABRRRQAUUUUAFFFFABRRRQAUUUUAFFFFABRRRQAUUUUAFFFFABRRRQAUUUUAFFFFABRRRQAUUUUAFFFFABRRRQAUUUUAFV727isLOW5uG2xRIXY+wqxWDrv+n6lp+k9Y5HNxOP8ApmmCAfYsR+VNCb0JPD1lII5dSvVxe3xDup/5ZJ/DGPoP1JraooobuCVgooopDOfu/FkdjerFdabqENq04t/tbxgR7ycDvu2k4+bGOax18UT6Z4o8Swy2uo6hFbyQuqW6bxBH5QLHkgcnJwMk+lZ2o+Ftd1CaRLm0NxcDUVuFvXviE8kSBgqRdAQoxgjtnJNas1n4h0zXdfudP023vINSMfklrgI0bLGFywPVc9hzxQBrT+LbNYrA2MU+oS38XnwQ26jcYxjLHJAUcgc9zisnVPHbxx6RLpmn3Uy3N8bW4jaMB42Xdujxu4fIz3GAeaz5fAs+mrokiWg1VbKxNnPAtwYWJJDb0bIzzkYOOCKu3Ph67i0XTZdL0eK2ntNSF69l9p3GTgqf3h43EEH0460AbF34rjt7n7NBpuoXdzHCs9xDAiloFbOA2WA3HBwoyTitXTb+31XT4L6zk8y3nQPG2MZBrjNS8N3R8R3WqyaL/aEd/DFuiS98p7eRFwRnIDKRjntjpXXaNZJp+kWtrFaJZpHGB5Eb71j7kA9/rQBfooooA5/WEOj6nDrUQIhYiG9Ud0PCv9VP6Gt8EMoIOQaiureO7tpbeZQ0cqlGB7g8Vl+F55G0trWdt09jI1s5Pfb90/ipBqnqrk7M2qKKzNX1iHSLffIQ0jcIgPLH/PelGLk0khTnGEXKT0NI8igcCue0ma3ike8v9Qge7kH3RKNsQ/ugZ/WtqC9trokW88cpHUIwOKqUHFkUqymk9myxRRRUGwUUUUAFFFFABRRVLU5jBYSOJ/s+MfvCm7bz6UJXdiZSUVdl2kqhc6va2kohmlPmlQwVVJLA56Adehp8WqWk1o10swEK53FuNuOufSq5JW2JVWDdrl2is+21mzuphFG7rIRuVXQruHqM9ajl1+whZ1aViUYq+1CdmPXHQe9P2c72sL21NK/MadFUbm5C3FlsuQiSsflCbvNG3PXt65qKbX7CFnVpTlGKybUJ2Y9cdB70KEnsgdaCvzNGnR/Os+PW7KW5WBJcs52q207WPoG6E0tzrNpaTeVIztIBuZY0LbR6nA4pckr2sHtqdr8xoUVFb3EV1AksLh43GVYdxUtTsaJpq6CiiigYUUUUAFFFFABRRRQAUUUUAFFFFABRRRQAUUUUAFFFFABRRRQAUUUUAFYem/6T4q1a5PIgWK1T243t+rD8q3KxPDgy+qyHq2oS/pgf0prZkvdG3RRRSKCiiigAooooAKKKKACiiigAooooAKwrX/RfGV9COEuraOcf7ykof021u1h3fyeMtOYdXtplP4FTTj1RL6G5WXrOjRaxb7Xwsqco+M4P9R7VqUUQk4tSi9RVIRqRcZLRnNaTbWc8j2l/psEV5F1xGNsg/vA/0rZj022t0kFpEluzrjfGoBFW/wAaMGqlUcnczpUIwVrX8ygun3IhdDqM5ZiCHIXK4/DFI+nXJiRBqVwGXOW2rls/hWjRilzsr2Ubf8EoSWNw0yOL+dVUDKALhsfhQljcCZ3N/OVYHCELhc/h2q/RRzsfso/0zOTT7lYXU6jOzMRhyFyuPTihtOuTCiDUrgMpOXCrls/hWjijFHtGL2Mbf8Ez5LGd2Rlv50CgAqAvzY7niofEgJ0K5ABJIHAGe4rVxSY5oU7NPsEqScXFdTnp7uGy8T+Zchgv2RRv25C/MevpmqbwyXNhfXcMLmCS7SYJjl0XGTj3xn8K6MWK/wBqNe7juMQi29sZzVsVr7ZRtY5lhnK/M7LWxz1zeQ6vf2AsiXMMnmO4UgIMEYPucjilsIv+JfrG5OWnm7deK3+KXHrU+10sjRYfVyk7s5uJG8rw98rcdeOn7s0+2j/0DW8py00vbr8oroce1FHtRLDJdf6tY5uePGh6MFQgiWDgDkcU+2vIdK1HUFvso00vmRuVJDrgAAe46YroelJij2ujTQ/q1mnFmX4eheHTiZEMfmSvIqEYKqSSBjtWtSAYoqJPmk5G9OChFR7C0UUVJYUUUUAFFFFABRRRQAUUUUAFFFFABRRRQAUUUUAFFFFABRRRQAUUUUAFYnh07bjWIT1S/dv++grf1rbrCtf9D8Y3sR4W9t0nX/eT5W/QrTXUl7o3agvb230+0kuruVIYIhueRzgKKnrmviL/AMk/1r/r3P8AMUijQ0/xLpGq3slnYX8E9xGu4ojdRnGR6jPcZqpaeJ7ODSLa71fUtPQztIEkhc+W+0n7u7kkAcj16VjQSnXPFXh+Sx026tI9LjlNy00BiEYZNojBIw2TzxkYGaoaJpV15Hg1Liylxb3V28oePiPO/aWz06jBoA7ez1/TL/TZNQtb2F7SInzJd20JjrnPTHvUek+JdJ1uR4tOv4p5I1DMi5B2nvg9R7jiuN1jRr65h8VrbWUkivf21wIQuPtKKqFwvqTtI9yMVqQz/wDCQ+NdJv7Czu4bbT7eZbiae3aHdvACxgMATggnjgY60AdnRRRQAUUUUAFFFFABWJc/vPGdio/5ZWkrn8WUf0rbrC03/S/FGqXY5SBY7RD7j5m/VgPwpx6slm7RRRSKCiiigAooooAKKKKACiiigAooooAKKKKACiiigAooooAKKKKACiiigAooooAKKKKACiiigAooooAKKKKACiiigAooooAKKKKACiiigAooooAKKKKACsPxKjWqWurRqS9hJukA7xNw/wCQwfwrcpskazRskihkYEMpHUGmtGJq6EjkWVFdGDIwyCO4qvqmmW+saZcWF4rNbzrskUHBI+tZWhytpd4+h3LHEYL2bk/fi/u/Ven0xXQUNWBMRQFUKOgGKWq2o38Gl6fcXt2+yC3QySNjOABmufsvGUk2oabaXmi3tk2pFjbvIyMpUKW+bB+U4A4PrSGdTRXODxjbnwudb+yzeSLjyPLyN2fN8vP0zz9KXUvFTWt/d2tjptxfmxQSXbRyIgjyNwUbj8zbecD25zQB0VFctc+No/tFhBpen3Woy39r9qgERVQUyPvFiNvXv9OtTR+KpLrUZobDR7u6t7aYW9xcoyAJJxuAUnLBcjJH60AdHRXM2Gruqaw9nb6jqEsOotB5TyJ8pwv3ScBYxnvk/Wr2ha//AGxJe281nLZ3dlIsc0LsGxuUMCGHBBBoA2KKKKAKmqX8emabPeScrEhO3+8ew+pOB+NVvD1jJYaRElx/x8ykzTn1djk/zx+FUpT/AMJBrqwr82n6dJulbtLOOi+4XqffFdDTeisStXcKKKKRQUUUUAFFFFABRRRQAUUUUAFFFFABRRRQAUUUUAFFFFABRRRQAUUUUAFFFFABRRRQAUUUUAFFFFABRRRQAUUUUAFFFFABRRRQAUUUUAFFFFABRRRQAUUUUAZ2saUuqWqhZDDcxN5kEy9Y3HQ+47EdxUOk6u10z2V8gg1GAfvIs8OP76eqn9OhrXrO1XR4NURCzPDcRHdDcR8PGfY+nseDTTvoyWne4eINKGuaBfaaZPL+1QtGHx90nofwOK5CZtb/AOEn8JJrMNnCIpZUUW8hcyMITl+QNox/DyeetdBHrdzpTiDxBGEXOEvox+6f/e/uH68e9ba+VcCOVdkgHzI4wevoaGmhpo4KXwr4gGizaDCLH7CL37Qlw0jb3QzeZt244PUZyenTnNWtT8JTL4j1DUItJ07VYr/YxW6kMbwOq7Tg7TlSADjg5zXcUUhnOWegzweJdPv1jtoLa301rVooScK5ZWwo/u/Kar6fpevaHqF7b2EVjPYXd692J5ZGV4t5y6lQPmOc4OR15rq6KAOHvfCmqNZ6ikDQuLjV/trQec0YuIcAeWzDlSSM9xxV/wAIeHrnRL3Vri4gtbWO9eJo4Ldywj2rggkgZPfNdTUN1eW9jA091MkMS9WdsAUbgTVg6nqU99dtpOkvicf8fNyBkWyn+bnsO3U1Gby/8Qfu9NEllYH713IuJJB/0zU9B/tH8BWvp2nW2l2q21pGEjBz7se5J7k+tVZIm9xdPsINMs47W1TbFGMDJySfUnuferVFFTcoKKKKACiiigAooooAKKKKACiiigAooooAKKKKACiiigAooooAKKKKACiiigAooooAKKKKACiiigAooooAKKKKACiiigAooooAKKKKACiiigAooooAKKKKACiiigAooooAa6LIhR1DKRggjg1iP4aW2cyaNdy6cxOTGnzRH6oeB+GK3aKd2hNJmF9r1+z4uLC3vkH8drLsb/vlv6Gnf8JOkf8Ax86bqcB/2rYsPzXNbdFF12FZ9zE/4SzT+0d6T6C0k/wo/wCElaX/AI9dI1OYnoTB5Y/NiK26KLrsFn3MIyeIb7hIrTTkPVnbzpB9AML+eafb+G7ZJ1ub+SXULociS4O4L/ur0X/PNbVFHMwt3CiiikUFFFFABRRRQAUUUUAFFFFABRRRQAUUUUAFFFFABRRRQAUUUUAFFFFABRRRQAUUUUAFFFFABRRRQAUUUUAFFFFABRRRQAUUUUAFFFFABRRRQAUUUUAFFFFABRRRQAUUUUAFFFFABRRRQAUUUUAFFFFABRRRQAUUUUAFFFFABRRRQAUUUUAFFFFABRRRQAUUUUAFFFFABRRRQAUUUUAFFFFABRRRQAUUUUAFFFFABRRRQAUUUUAFFFFABRRRQAUUUUAFFFFABRRRQAUUUUAFFFFABRRRQAUUUUAFFFFABRRRQAUUUUAFFFFABRRRQAUUUUAFFFFABRRRQAUUUUAFFFFABRRRQAUUUUAFFFFABRRRQAUUUUAFFFFABRRRQAUUUUAFFFFABRRRQAUUUUAFFFFABRRRQAUUUUAFFFFABRRRQAUUUUAFFFFAC0UUUAFFFFABRRRQAUUUUAFFFFABRRRQAUUUUAFFFFABRRRQAUUUUAFFFFABRRRQAUUUUAFFFFABRRRQAUUUUAFFFFABRRRQAUUUUAFFFFABRRRQAUUUUAFFFFABRRRQAUUUUAFFFFABRRRQAUUUUAFFFFABRRRQB//Z;" vertex="1" parent="1">
          <mxGeometry x="547.19" y="949.4" width="201.88" height="151.2" as="geometry" />
        </mxCell>
      </root>
    </mxGraphModel>
  </diagram>
</mxfile>
